<svg width="512" height="512" viewBox="0 0 512 512" fill="none" xmlns="http://www.w3.org/2000/svg">
<rect width="512" height="512" fill="#EEEEEE"/>
<path d="M190.976 198.424C214.528 198.424 232.96 205.592 246.272 219.928C259.584 234.264 266.24 254.403 266.24 280.344V479H185.344V294.168C185.344 280.515 183.125 271.128 178.688 266.008C174.592 260.547 168.277 257.816 159.744 257.816C143.36 257.816 127.659 269.592 112.64 293.144V479H31.744V207.128H102.4L108.032 239.384C119.637 225.731 132.096 215.491 145.408 208.664C159.061 201.837 174.251 198.424 190.976 198.424ZM356.94 395.032C369.569 395.032 380.321 399.64 389.196 408.856C398.412 417.731 403.02 428.483 403.02 441.112C403.02 454.083 398.412 465.176 389.196 474.392C380.321 483.267 369.569 487.704 356.94 487.704C343.969 487.704 332.876 483.267 323.66 474.392C314.785 465.176 310.348 454.083 310.348 441.112C310.348 428.483 314.785 417.731 323.66 408.856C332.876 399.64 343.969 395.032 356.94 395.032Z" fill="#343434"/>
</svg>
